<svg xmlns="http://www.w3.org/2000/svg" width="372" height="340" viewBox="0 0 372 340">
  <defs>
    <style>
      .cls-1 {
        stroke-width: 1px;
        fill-rule: evenodd;
      }
    </style>
  </defs>
  <path id="components_1" data-name="components 1" class="cls-1" d="M174,11h25l1,3,6,1c0.755,2.963,1.079,3.2,4,4v2c1.116,0.633,1.187,1.428,2,2h2c2.387,1.855-.267,2.641,4,4q0.5,2.5,1,5l3,1c0.1,7.382,1.819,14.549,0,21v6l-3,2q-0.5,3-1,6h-2c-1.148,2.88-1.7,5.976-5,7q-0.5,3.5-1,7l-3,1q-0.5,3-1,6l-3,1q-0.5,3-1,6h-2c-1.167,2.827-1.747,5.03-5,6-0.049,3.218-.414,5.387-2,7-1.135,1.068-.047.376-2,1-0.5,7.115-4.4,5.294-5,13l-3,1q-0.5,3-1,6h-2c-1.153,3.263-1.4,6.883-5,8q-0.5,3-1,6c-2.794.806-2.154,0.249-3,3-0.99,1.122-.685.824-1,3l-3,1q-0.5,3.5-1,7h-2c-1.169,3.241-1.407,5.926-5,7a34.52,34.52,0,0,0-1,7c-4.546,1.32-1.975,1.917-4,5-1.879,2.861-2.727.327-3,6-0.99,1.122-.685.824-1,3h-2c-1.169,3.241-1.407,5.926-5,7a34.52,34.52,0,0,0-1,7c-5,1.693-1.824,1.746-4,5l-3,2c-2.194,3.927,1.289,5.2-4,7q-0.5,3-1,6h-2c-1.5,2.8-1.883,2.251-2,7l-3,1q-0.5,3-1,6h-2q-1,3-2,6l-4,3c-1.121,2.172.818,2.943-1,5-1.135,1.068-.047.376-2,1-0.311,1.947-.871,4.775-2,6-1.135,1.068-.047.376-2,1q-0.5,2.5-1,5l-3,1c-0.584,9.054-4.694,4.023-5,14H96c-1.148,2.88-1.7,5.976-5,7-0.188,2.7-.6,4.571-2,6-1.135,1.068-.047.376-2,1l-1,6-3,1a34.541,34.541,0,0,0-1,7c-3.248.813-3.579,1.31-4,5-2.963.755-3.2,1.079-4,4-2.963.755-3.2,1.079-4,4l-5,1-1,3c-3.029.036-7.292,0.469-9,2-1.068,1.135-.376.047-1,2H43l-1-3a39.488,39.488,0,0,1-9-1l-1-3a34.52,34.52,0,0,0-7-1v-2l-6-5c-2.005-3.173,1.742-2.414-3-4l-1-6-3-1V288c-0.2-1.4-1.007.414-1-1h1V275l3-2,1-6,3-1,1-6h2c1.353-2.522,1.979-3.507,2-8h2c1.2-2.252,1.766-2.235,2-6l3-1,1-6h2c0.348-.771,1.915-2.817,2-3v-3l2-1c1.72-2.054,1.834-3.087,2-7,2.794-.806,2.154-0.249,3-3,1.02-1.167.864-1.648,1-4h2l2-6c1.874-2.952,3.3-1.63,4-7,2.794-.806,2.154-0.249,3-3,1.081-1.237.969-2.492,1-5h2c1.148-2.88,1.7-5.976,5-7l1-6h2c2.194-4.9,5.561-7.672,6-14l3-1,1-6h2c2.133-5.225,5.544-7.511,6-14,2.794-.806,2.154-0.249,3-3,1.02-1.167.864-1.648,1-4l3-1,1-6h2c2.3-5.009,5.571-6.99,6-14,2.794-.806,2.154-0.249,3-3,0.99-1.122.685-.824,1-3h2c0.474-1.2.307-2.311,1-4h1v-3l3-2q0.5-2,1-4l3-2q0.5-3,1-6l3-1q0.5-3,1-6l3-1q0.5-3,1-6h2q1-3,2-6c0.844-1.319,3.19-2.436,4-4V67l3-1q0.5-3.5,1-7c2.794-.806,2.154-0.249,3-3,0.99-1.122.685-.824,1-3h2c1.267-5.945,5.167-7.9,6-14l3-1q0.5-3.5,1-7c5.271-1.624,5.905-9.1,10-12,3.071-2.172,3.411,1.046,5-4l6-1Zm99,84h13v2l11,2v2c2.985,1.59,5.594,4.028,9,5l1,4,3,1q0.5,2.5,1,5l3,1c-0.03,2.963.688,10.488,2,12,1.135,1.068.047,0.376,2,1v6l-3,1q-0.5,5.5-1,11l-3,1c-0.627,6.414-4.163,6.972-5,13h-2c-1.153,3.263-1.4,6.883-5,8q-0.5,3-1,6c-2.794.806-2.154,0.249-3,3-1.02,1.167-.864,1.648-1,4h-2c-1.169,3.241-1.407,5.926-5,7q-0.5,3.5-1,7l-3,1q-0.5,3-1,6c-2.794.806-2.154,0.249-3,3-0.99,1.122-.685.824-1,3l-3,1q-0.5,3-1,6l-3,1q-0.5,3-1,6l-3,1a34.52,34.52,0,0,0-1,7c-3.9,1.156-4.31,4.915-5,9h-4v5h-2q-0.5,3-1,6l-3,1a34.52,34.52,0,0,0-1,7h-2c-1.167,2.827-1.747,5.03-5,6q-0.5,3.5-1,7h-2c-1.5,2.8-1.883,2.251-2,7h-2c-1.5,2.8-1.883,2.251-2,7h-2c-1.148,2.88-1.7,5.976-5,7q-0.5,3-1,6l-3,1a34.52,34.52,0,0,0-1,7c-2.794.806-2.154,0.249-3,3-0.99,1.122-.685.824-1,3h-2l-1,3c-1.758,2.379-2.637-.268-4,4l-4,1-1,3c-2.576.161-5.543,0.652-7,2-1.068,1.135-.376.047-1,2H177l-1-3-7-1c-0.871-3.1-1.835-3.32-5-4-0.755-2.963-1.079-3.2-4-4-0.755-2.963-1.079-3.2-4-4-0.188-2.7-.6-4.571-2-6-1.135-1.068-.047-0.376-2-1q-0.5-10-1-20h1v-8l3-1q0.5-3,1-6h2c1.148-2.88,1.7-5.976,5-7a39.139,39.139,0,0,0,1-8h3c0.358-2.041.823-3.8,2-5,1.135-1.068.047-.376,2-1q0.5-3.5,1-7c2.794-.806,2.154-0.249,3-3,0.99-1.122.685-.824,1-3,2.794-.806,2.154-0.249,3-3,1.081-1.237.969-2.492,1-5,2.794-.806,2.154-0.249,3-3,0.99-1.122.685-.824,1-3l3-1q0.5-3,1-6l3-1q0.5-3,1-6c2.794-.806,2.154-0.249,3-3,1.02-1.167.864-1.648,1-4h2c1.153-3.263,1.4-6.883,5-8q0.5-2.5,1-5h2c0.76-3.473,1.837-4.356,2-9h2c2.061-3.615,4.6-4.539,5-10,0.99-1.122.685-.824,1-3,3.238-.957,3.386-2.661,4-6l3-1q0.5-3.5,1-7h2c1.148-2.88,1.7-5.976,5-7q0.5-3.5,1-7c3.238-.957,3.386-2.661,4-6,2.794-.806,2.154-0.249,3-3,1.02-1.167.864-1.648,1-4h2c1.153-3.263,1.4-6.883,5-8,0.679-5.93,4.107-5.5,5-11l5-1v-3l4-1,1-3c2.979-.038,8.242-0.454,10-2C273.068,95.865,272.376,96.953,273,95Zm53,136v2c2.431,0.41,6.611,1.406,8,3l1,3c2.914,2.061,2.526-1.778,4,3,4.013,1.186,3.158,3.747,7,5q0.5,2.5,1,5l3,1a29.276,29.276,0,0,0,1,7l3,1q0.5,3,1,6c6,2.1,1.009,5.942,7,8v24c-2.794.806-2.154,0.249-3,3-1.081,1.237-.969,2.492-1,5-3.1.871-3.32,1.835-4,5-5.642,1.72-2.967,5.46-11,6l-1,3c-2.576.161-5.543,0.652-7,2-1.068,1.135-.376.047-1,2H319v-2l-10-2c-3.376-2.346,1.063-3.326-6-4v-2l-3-1c-2.379-1.758.268-2.637-4-4q-0.5-2.5-1-5l-3-1q-0.5-3-1-6c-6-2.1-1.009-5.942-7-8-0.188-2.7-.6-4.571-2-6-1.135-1.068-.047-0.376-2-1-0.036-3.029-.469-7.292-2-9-1.135-1.068-.047-0.376-2-1V262l3-1q0.5-5,1-10c2.794-.806,2.154-0.249,3-3,0.99-1.122.685-.824,1-3h2l5-7c3.187-2.017,2.393,1.735,4-3,3.218-.049,5.387-0.414,7-2,1.068-1.135.376-.047,1-2l15-1v1h8Z"/>
</svg>
